<svg width="32" height="32" viewBox="0 0 32 32" fill="none" xmlns="http://www.w3.org/2000/svg">
  <path d="M16 4L4 16L16 28L28 16L16 4Z" fill="hsl(170, 90%, 50%)" />
</svg>
<svg xmlns="http://www.w3.org/2000/svg" viewBox="0 0 83.03 126.33">
  <!-- Background circle -->
  <circle cx="41.5" cy="63" r="63" fill="hsl(220, 20%, 6%)"/>
  <!-- Logo mark in primary color -->
  <path
    fill="hsl(170, 90%, 50%)"
    d="m 41.512,0.261 a 41.253,41.629 0 0 0 -41.252,41.628 41.253,41.629 0 0 0 32.323,40.643 41.253,41.629 0 0 0 1.355,0.279 l 3.605,-15.214 a 25.783,26.018 0 0 1 -21.813,-25.707 25.783,26.018 0 0 1 25.782,-26.017 25.783,26.018 0 0 1 25.785,26.017 25.783,26.018 0 0 1 -22.433,25.798 l -8.7,15.48 -1.096,1.946 -1.634,2.91 -0.538,1.198 -0.254,0.56 0.25,31.085 a 5.157,5.204 0 0 0 5.158,5.203 5.157,5.204 0 0 0 5.154,-5.203 l 0.094,-9.977 10.985,-0.232 a 5.157,5.204 0 0 0 5.158,-5.203 5.157,5.204 0 0 0 -5.158,-5.206 5.157,5.204 0 0 0 -0.438,0.031 5.157,5.204 0 0 1 0.232,-0.026 l -10.682,0.213 0.157,-16.997 a 41.253,41.629 0 0 0 39.214,-41.578 41.253,41.629 0 0 0 -41.255,-41.628 z"
  />
</svg>
