<svg xmlns="http://www.w3.org/2000/svg" width="512" height="512" viewBox="0 0 512 512">
  <defs>
    <linearGradient id="bg" x1="0" y1="0" x2="512" y2="512" gradientUnits="userSpaceOnUse">
      <stop offset="0" stop-color="#0B1120"/>
      <stop offset="100" stop-color="#040814"/>
    </linearGradient>
    <linearGradient id="flame" x1="0" y1="512" x2="512" y2="0" gradientUnits="userSpaceOnUse">
      <stop offset="0" stop-color="#EA580C"/>
      <stop offset="60" stop-color="#F97316"/>
      <stop offset="100" stop-color="#FBBF24"/>
    </linearGradient>
  </defs>
  <rect width="512" height="512" rx="96" fill="url(#bg)"/>
  <path d="M256 80c-60 96-120 144-120 216 0 66.3 53.7 120 120 120s120-53.7 120-120c0-72-60-120-120-216z" fill="url(#flame)"/>
  <path d="M256 200c-24 40-40 64-40 96 0 22.1 17.9 40 40 40s40-17.9 40-40c0-32-16-56-40-96z" fill="#fff" opacity="0.25"/>
</svg>
